<?xml version="1.0" encoding="UTF-8"?>
<svg width="20px" height="20px" viewBox="0 0 20 20" version="1.1" xmlns="http://www.w3.org/2000/svg" xmlns:xlink="http://www.w3.org/1999/xlink">
    <!-- Generator: Sketch 51.3 (57544) - http://www.bohemiancoding.com/sketch -->
    <title>4</title>
    <desc>Created with Sketch.</desc>
    <defs></defs>
    <g id="4" stroke="none" stroke-width="1" fill="none" fill-rule="evenodd">
        <path d="M17.4748359,14.1219277 L17.4759504,14.8938851 C18.3805111,15.1649969 18.9966566,15.9707041 19,16.8833716 C19,18.0356071 18.0222572,18.9684585 16.8169811,18.9684586 C15.611705,18.9684586 14.6362943,18.0344938 14.6362943,16.8833716 C14.6362943,15.9617564 15.2614586,15.1819027 16.1265596,14.9062346 L16.1265596,14.1219277 C16.1265596,13.2599571 15.3943256,12.5577672 14.4909619,12.5577672 L14.2983274,12.5577672 C13.3960988,12.5577672 12.6627298,13.2599571 12.6627298,14.1219277 L12.6627298,16.1474113 C12.654908,17.7283952 11.3189112,19.0055689 9.6777413,18.9999817 L9.48622125,18.9999817 C7.84168736,18.9999817 6.50234724,17.7193856 6.50234724,16.1474113 L6.50234724,12.3540931 L6.44602633,12.3540931 C6.13350606,12.3534746 5.88052625,12.1002376 5.88052625,11.7880364 C2.41793468,11.5686523 1.73531432,9.10205025 1.22279183,6.18305224 L1.10558899,5.51463277 C0.869119532,4.21607934 1.02681398,2.77570249 1.60917527,2.09041841 C2.00569192,1.62010642 2.58916764,1.32862514 3.21767533,1.28473183 L4.25854961,1.28473183 C4.43983096,1.10138671 4.68764804,0.999099481 4.94560714,1.0011468 C5.4660546,1.00003348 5.89068013,1.40515494 5.89292965,1.90591806 C5.88922573,2.27216897 5.66584956,2.60042171 5.32629449,2.73859211 C4.98268724,2.88323881 4.58651215,2.818503 4.30694557,2.57202845 L3.26159285,2.57202845 C3.01913992,2.60567853 2.7983193,2.72946423 2.64323903,2.91865984 C2.33338107,3.29895859 2.27260234,4.40404333 2.4336608,5.29298082 L2.55311317,5.96812139 C3.12977837,9.2651709 3.73242672,10.2891489 5.88052625,10.4962866 C5.88052625,10.2014653 6.1204629,9.96177366 6.41558536,9.96177364 L7.88554296,9.96177364 C8.17397874,9.96177364 8.40710486,10.1946618 8.40710488,10.4827207 C10.4650785,10.196909 11.1375657,9.20332031 11.7041596,5.96923469 L11.8236119,5.29411475 C11.9869199,4.39167321 11.8404731,3.27988799 11.5183356,2.90294978 C11.3643644,2.72259371 11.1495656,2.60486288 10.9145728,2.57202845 L9.86701181,2.57202845 C9.58788342,2.81847077 9.19220941,2.88362148 8.84867414,2.73970543 C8.5091825,2.60146386 8.28584892,2.2732498 8.28208027,1.90703136 C8.28208027,1.66622635 8.38347444,1.43436905 8.5603622,1.26566123 C8.74054757,1.09395022 8.98036394,0.998726117 9.22938215,1.00001287 C9.48849143,1.00001287 9.7363324,1.10353016 9.91433459,1.28471122 L10.9539912,1.28471122 C11.57776,1.32515323 12.1586913,1.61571642 12.5648234,2.0903978 C13.147164,2.77677457 13.3871006,4.21605873 13.150528,5.51461214 L13.0333871,6.18191831 C12.5275925,9.06937251 11.7717901,11.4819378 8.4082606,11.7802226 L8.4082606,11.797046 C8.4082606,12.1046909 8.15862413,12.3540725 7.85066486,12.3540725 L7.85066486,16.1462773 C7.85066486,17.0093613 8.5840339,17.7103554 9.48626253,17.7103554 L9.67889702,17.7103554 C10.5811463,17.7103554 11.3144947,17.0093613 11.3144947,16.1462773 L11.3144947,14.1207938 C11.3223371,12.5409232 12.6583132,11.2647803 14.2995038,11.2693366 L14.4910032,11.2693366 C16.1366928,11.2693366 17.4748359,12.5498709 17.4748359,14.1219277 Z M16.8180955,18.009733 C17.4402674,18.009733 17.9445141,17.5058979 17.9445141,16.8844643 C17.9445141,16.2629482 17.4402467,15.7591957 16.8180955,15.7591956 C16.1960062,15.7591956 15.691677,16.2629688 15.691677,16.8844643 C15.691677,17.5059186 16.1960269,18.009733 16.8180955,18.009733 Z" id="Shape-Copy-6" fill="#FFFFFF" fill-rule="nonzero"></path>
    </g>
</svg>