<?xml version="1.0" encoding="UTF-8"?>
<svg width="20px" height="20px" viewBox="0 0 20 20" version="1.1" xmlns="http://www.w3.org/2000/svg" xmlns:xlink="http://www.w3.org/1999/xlink">
    <!-- Generator: Sketch 51.3 (57544) - http://www.bohemiancoding.com/sketch -->
    <title>1</title>
    <desc>Created with Sketch.</desc>
    <defs></defs>
    <g id="1" stroke="none" stroke-width="1" fill="none" fill-rule="evenodd">
        <path d="M9.00473984,11.0032106 L9.00473984,3.99401802 C8.95294615,3.49448664 9.35540342,3.05128042 9.90365331,3.00408921 C10.4519032,2.95689799 10.9383346,3.32359215 10.9901283,3.82312352 L11,3.82312352 L11,11.0960333 L10.994077,11.0960333 C10.9922685,11.4306093 10.7887614,11.7371979 10.4643875,11.8940239 C10.1400135,12.0508498 9.74728464,12.032525 9.44219042,11.846328 C9.1370962,11.6601311 8.96902735,11.3362047 9.00473984,11.0032106 Z M10.0043358,18 C6.135931,18 3.00004209,14.7735404 3.00004209,10.793765 C2.99465619,9.20272116 3.50629455,7.65547374 4.45363921,6.39793662 C4.63590009,6.11928265 4.95368802,5.9680835 5.2780858,6.00567622 C5.60248357,6.04326894 5.87962083,6.26341078 5.99707116,6.57679668 C6.11452149,6.89018257 6.05278077,7.24477084 5.8368954,7.49671545 C5.1279518,8.44050606 4.74585066,9.60096913 4.75128878,10.793765 C4.75128878,13.7785074 7.10303221,16.1985304 10.0043358,16.1985304 C12.9056394,16.1985304 15.2573829,13.7785074 15.2573829,10.793765 C15.26037,9.59991531 14.8751814,8.43933636 14.1631136,7.49671545 C13.947913,7.24469297 13.8866352,6.89051864 14.0040867,6.57756948 C14.1215381,6.26462033 14.398264,6.04473399 14.7222399,6.00692497 C15.0462157,5.96911595 15.3637776,6.11964702 15.5463698,6.39758011 C16.493169,7.65541909 17.0047416,9.20246762 16.9999669,10.7934084 C16.9999669,14.7699753 13.8692756,17.9950088 10.0043358,18 Z" id="Shape-Copy-5" fill="#FFFFFF" fill-rule="nonzero"></path>
    </g>
</svg>