<?xml version="1.0" encoding="UTF-8"?>
<svg width="20px" height="20px" viewBox="0 0 20 20" version="1.1" xmlns="http://www.w3.org/2000/svg" xmlns:xlink="http://www.w3.org/1999/xlink">
    <!-- Generator: Sketch 51.3 (57544) - http://www.bohemiancoding.com/sketch -->
    <title>3</title>
    <desc>Created with Sketch.</desc>
    <defs></defs>
    <g id="3" stroke="none" stroke-width="1" fill="none" fill-rule="evenodd">
        <path d="M7.05971872,10.6326019 C6.89817272,10.6774431 6.72964185,10.5885169 6.68301366,10.4341301 C6.63617758,10.2794646 6.72945476,10.1181117 6.89031474,10.0734695 C7.04171604,10.0314345 7.20808493,10.0029535 7.38235337,9.98543893 C7.56393931,9.96724767 7.75820611,9.96119718 7.95509225,9.96414281 C7.9962739,9.96422243 8.03460755,9.94953408 8.06319149,9.92387923 C8.09117256,9.89880157 8.10963258,9.8641108 8.11148274,9.82502149 C8.15833961,8.97669985 8.06400223,8.27987914 7.8495084,7.70420743 C7.8662222,7.37861576 7.93012548,7.05630807 8.0528597,6.75589358 C8.54799579,7.5287832 8.7929653,8.5314917 8.71945781,9.85443799 C8.70879341,10.0510389 8.61767822,10.2257267 8.47779365,10.3506573 C8.3385743,10.4747917 8.15058557,10.5491291 7.94540489,10.546064 C7.77519017,10.5434169 7.605412,10.5488902 7.44438571,10.5649718 C7.30346172,10.5790232 7.1725577,10.6009961 7.05980187,10.6326019 L7.05971872,10.6326019 Z M4.59437004,5.22040414 C4.17224251,5.10222067 3.72119844,5.00260662 3.2474951,4.91427751 C3.08212405,4.88382606 2.97373377,4.73109115 3.00553989,4.572664 C3.03734602,4.41433637 3.19666767,4.31056261 3.36235054,4.34101406 C3.88945906,4.43955335 4.39083165,4.55172614 4.86073073,4.68760329 C4.76254752,4.85960422 4.67407245,5.03747651 4.59474423,5.22010559 L4.59437004,5.22040414 Z M16.7858231,6.06016753 C16.946496,6.10799422 17.0362599,6.27153641 16.9860769,6.42516696 C16.9358939,6.5787975 16.765305,6.66493729 16.60484,6.61689167 C15.4885906,6.28453301 14.4209027,6.12891217 13.3593058,6.20965827 C12.3015756,6.29016553 11.2449055,6.60707954 10.1453284,7.2193925 C9.99985173,7.29989976 9.81350527,7.25257064 9.7294789,7.11336971 C9.72386606,7.10383621 9.7188145,7.09446194 9.71422028,7.08478913 L9.7141787,7.08478913 C9.49989275,6.6177674 9.2124735,6.19164614 8.86478893,5.80935109 C9.13879971,5.67102588 9.43902456,5.64672443 9.68110449,5.85717777 C9.84822084,6.08065763 9.99781414,6.31568415 10.1286561,6.56032761 C11.2090457,6.00226997 12.2583151,5.70792587 13.312054,5.62747831 C14.4551619,5.54052251 15.5974798,5.70563703 16.7864051,6.05978938 L16.7858231,6.06016753 Z M5.46043205,3.84887485 C5.02300432,3.7294375 4.56628503,3.63957587 4.09513865,3.58014579 C3.92837479,3.55944677 3.81139894,3.41304098 3.83274854,3.25361868 C3.85438917,3.09409688 4.00728723,2.9819639 4.17380164,3.00240418 C4.78955154,3.08024445 5.38282927,3.20660802 5.9442593,3.37994244 C5.77125631,3.52464392 5.60949032,3.68121628 5.46024495,3.84841709 L5.46043205,3.84887485 Z M16.637935,7.48266816 C16.7986079,7.53051475 16.8883718,7.69403704 16.8381888,7.84766759 C16.7880058,8.00129814 16.6174169,8.08743792 16.4569519,8.0393923 C15.3450681,7.70830743 14.3269396,7.60226474 13.3663947,7.72667781 C12.4624563,7.84386613 11.6034832,8.16685052 10.7594152,8.70060671 C10.7814924,8.95462752 10.7879576,9.21543523 10.7783533,9.4829104 C10.7662545,9.81371664 10.7296463,10.149618 10.6673437,10.49155 C10.6523346,10.5740873 10.693537,10.6225509 10.7661922,10.6566048 C10.9624547,10.74778 11.1549129,10.8455829 11.3451883,10.9527202 C11.5416379,11.0632411 11.8042151,11.2399391 11.9973594,11.3677158 C12.3263345,11.5852546 11.9937838,12.0466836 11.6648087,11.8293438 C11.6053541,11.7899361 11.4648459,11.7114589 11.4059734,11.6745191 C11.5274187,12.1260564 11.5103515,12.5988898 11.4322082,13.0554028 C11.3807779,13.3556381 11.2990383,13.6623817 11.1976537,13.9692647 C11.1708367,14.3109976 11.2467765,14.6119495 11.323028,14.9136776 C11.4337674,15.3521187 11.5451719,15.7920526 11.4157855,16.3811389 C11.3814224,16.5386903 11.2203961,16.6399563 11.0556487,16.6069573 C10.8910884,16.5740577 10.7853174,16.4198898 10.8197845,16.2621593 C10.9165956,15.8213497 10.8344818,15.4593556 10.7449673,15.1021183 C10.4832008,15.6736104 10.1915408,16.2176166 9.93808965,16.6907087 L9.85747256,16.8413737 C9.78111708,16.9846149 9.59774335,17.0412984 9.44850403,16.9678567 C9.29926472,16.8944149 9.2396854,16.7191897 9.31639429,16.5763068 L9.39701137,16.4256418 C9.77267702,15.7253778 10.2397073,14.8542077 10.5495779,13.9973079 C10.5147246,14.0242191 10.4795484,14.0507448 10.4440565,14.0768797 C9.81344291,14.5402194 8.98920699,14.9378397 8.35961208,15.1302013 C8.19972914,15.1786848 8.02886998,15.094177 7.97837516,14.9403873 C7.92773483,14.787314 8.01600201,14.623732 8.1763215,14.5753878 C8.74608765,14.4013369 9.49602612,14.0381486 10.0746897,13.6134007 C10.3653935,13.3997231 10.607515,13.1768105 10.7471709,12.9660785 C10.9462814,12.6657038 10.9117935,12.2583112 10.8416953,11.9251166 C10.779268,11.6288618 10.6493826,11.364392 10.433205,11.1455197 C10.1581755,10.9916901 10.0130523,10.6929674 10.0681206,10.3908413 C10.1270554,10.068235 10.1610028,9.75910306 10.1719374,9.46183322 C10.1828097,9.1645833 10.1718335,8.87328434 10.1379485,8.58799605 L10.1379901,8.58799605 C10.1262031,8.48503831 10.1723532,8.37923445 10.2675221,8.31636117 C11.2389393,7.672522 12.2324544,7.28531093 13.287212,7.14857795 C14.3381445,7.0120042 15.4431266,7.12509252 16.6400138,7.48159341 L16.637935,7.48266816 Z" id="Shape" fill="#FFFFFF" fill-rule="nonzero"></path>
        <path d="M5.19332508,9.48759859 C4.58162618,7.22432573 5.40935382,4.20998733 7.85027285,3.53243311 C8.19428052,2.94933145 8.28620849,2.08470593 8.16596607,1 L9.86940357,1 C10.0297136,1.72267061 10.0297136,2.66370609 9.65796529,3.36993131 C10.255042,2.75200643 10.7480418,2.06135899 11.1023187,1.27428711 L13,1.67142171 C12.6603256,2.62491941 12.0979939,3.47836443 11.3906868,4.2831437 C11.6706456,4.55315185 11.9749814,4.94070317 12.2044254,5.34253082 L10.2974444,6.06577327 C9.24941413,4.1158897 6.53251334,5.99074362 7.23400327,9.1885448 C7.46443657,10.239867 5.38367098,10.192128 5.19322615,9.48819015 L5.19332508,9.48759859 Z" id="Shape" fill="#FFFFFF" fill-rule="nonzero"></path>
        <path d="M4.1052615,10.2173838 C4.25032656,10.0347779 4.52706977,9.99638984 4.7227277,10.1317229 C4.91838564,10.2670559 4.95971219,10.5246948 4.81458683,10.7074132 C4.35032638,11.2888579 4.24367331,11.9766759 4.38618561,12.6462933 C4.55287877,13.4270263 5.05313916,14.1822859 5.72759018,14.7307034 C6.74473405,15.5576408 9.14476984,18.227938 10.2080041,18.1757916 C10.3621143,18.1683502 10.528908,18.1265881 10.703561,18.0556039 C12.356583,17.3843557 13.7144901,15.0698608 13.6215054,13.4243459 C13.6006612,13.058553 13.5194754,12.7029945 13.3644807,12.3705101 C13.3036969,12.2404816 13.3535259,12.3452804 13.3381089,12.3123656 C13.1328429,11.8807619 13.1021696,11.815907 13.5142292,11.3761871 C13.5994415,11.2849673 13.677531,11.1881679 13.7478971,11.0865331 C14.0152534,10.6999717 14.1639968,10.2418637 14.1002582,9.76564887 C14.0561377,9.43648217 13.9096254,9.09366969 13.6298269,8.75246922 C13.6825907,8.74403433 13.7359775,8.73644294 13.7890025,8.72980749 C14.0724191,8.69398735 14.3556146,8.68270335 14.6380462,8.69160683 C14.8261866,9.01586256 14.9351311,9.34384838 14.9784476,9.66576109 C15.0697841,10.3472248 14.8639553,10.993562 14.4910113,11.5315389 C14.3981672,11.6659348 14.2927604,11.795101 14.1776249,11.9181003 C14.1351527,11.9631989 14.136218,11.9657668 14.1435144,11.9802748 C14.1767405,12.049872 14.1325396,11.9540517 14.1732229,12.0414371 C14.3727201,12.4685235 14.4768204,12.9209332 14.5029912,13.3823776 C14.6150513,15.370705 13.0511546,18.0001398 11.055701,18.8104137 C10.7850884,18.9202171 10.5148176,18.9853719 10.252205,18.9982304 C8.62338387,19.0781744 6.47160892,16.4281959 5.14592291,15.3499364 C4.33006511,14.6861485 3.72204612,13.7638406 3.51738318,12.8044006 C3.41927281,12.3455616 3.41241855,11.8783627 3.51567464,11.4248095 C3.41326277,11.2916883 3.32689107,11.1537498 3.25577562,11.0118375 C2.91507273,10.3352285 2.93651993,9.60606084 3.19173554,8.9325259 C3.43726273,8.28500788 3.9025483,7.68729318 4.46503973,7.24461167 C4.57579796,7.15776161 4.69113732,7.07612275 4.81062704,7 C4.7439337,7.3806195 4.71460712,7.7680244 4.72218499,8.15286135 C4.41705992,8.45957252 4.17070862,8.82302234 4.02498024,9.20684711 C3.87372424,9.60564847 3.83388511,10.0247873 3.95577434,10.4190338 C4.00274465,10.3502451 4.05237174,10.2830656 4.10455798,10.2176275 L4.1052615,10.2173838 Z" id="Shape" fill="#FFFFFF" fill-rule="nonzero"></path>
    </g>
</svg>