<?xml version="1.0" encoding="UTF-8"?>
<svg width="20px" height="20px" viewBox="0 0 20 20" version="1.1" xmlns="http://www.w3.org/2000/svg" xmlns:xlink="http://www.w3.org/1999/xlink">
    <!-- Generator: Sketch 51.3 (57544) - http://www.bohemiancoding.com/sketch -->
    <title>2</title>
    <desc>Created with Sketch.</desc>
    <defs></defs>
    <g id="2" stroke="none" stroke-width="1" fill="none" fill-rule="evenodd">
        <path d="M18.292516,17 C17.9013722,16.9977066 17.5857918,16.6863119 17.5867368,16.3035821 L17.5799259,16.2369392 C17.5799259,16.2311079 17.5841827,16.2244437 17.5841827,16.2152803 C17.5588455,14.3664445 16.4691986,12.6899415 14.7687283,11.883494 C14.4877789,11.7127216 14.5082116,11.7343806 14.3285742,11.6335832 C14.1489368,11.5302868 13.3622782,11.2353921 13.3111965,10.6222778 C13.2618175,10.0558134 13.6262005,9.76924908 13.9514208,9.63929549 L14.0620978,9.59347852 C14.8904731,9.10781864 15.6030632,8.41306676 15.6030632,7.39009877 C15.6030632,6.07556825 14.532901,4.79102701 13.2992774,4.48863502 C13.1846057,4.45600342 13.0684038,4.42875976 12.9510703,4.4069975 C12.5892414,4.32535999 12.2793457,4.11043675 12.2793457,3.74306795 L12.2725348,3.68142331 C12.2725348,3.32738308 12.5534842,3.0441509 12.9085022,3.02415805 L12.9289349,3.02665714 C15.1657798,3.18724254 16.8943146,5.01393363 16.8860658,7.20849697 C16.8860658,8.53302393 16.2500984,9.69927406 15.2795456,10.4706652 C15.2565588,10.4856599 15.2369775,10.5081519 15.242937,10.533976 C15.2497479,10.5672974 15.301681,10.580626 15.301681,10.580626 C17.5181448,11.6052823 18.9450798,13.7752394 18.9795652,16.1736285 C18.9821192,16.1936213 18.993187,16.2111151 18.993187,16.232774 L18.9999978,16.2994169 C19.0009513,16.6834796 18.6850112,16.996339 18.292516,17 Z M10.9767617,10.5364751 C13.241085,11.545495 14.7075746,13.7418376 14.7423361,16.1761276 C14.7440389,16.1952874 14.7559579,16.2127811 14.7559579,16.2344401 L14.7627688,16.3010829 C14.7627688,16.6859455 14.4477648,16.9983339 14.0561383,16.9983339 C13.6649945,16.995583 13.3497934,16.6838145 13.3512105,16.3010829 L13.3443996,16.2344401 C13.3443996,16.2286088 13.3469537,16.2261097 13.3469537,16.2194454 C13.3111965,13.6103772 11.2168458,11.5086279 8.59635333,11.4003332 C8.527393,11.4028323 8.25751123,11.4028323 8.18769954,11.4003332 C5.54336894,11.5127931 3.43113965,13.6495299 3.43113964,16.2919196 L3.43113964,16.2944187 L3.41751785,16.2944187 L3.41751785,16.302749 C3.41893499,16.6854805 3.10373389,16.997249 2.71259005,17 C2.52443213,16.9995596 2.34418486,16.9258858 2.21161676,16.7952337 C2.07904866,16.6645815 2.00505439,16.4876881 2.00595953,16.3035821 L2,16.2369392 C2,16.186957 2.02043269,16.140307 2.02894631,16.0944901 C2.09379426,13.6869494 3.55802643,11.5270426 5.79962893,10.5323099 C4.7924676,9.76008567 3.81595531,8.74961323 3.81595529,7.39259788 C3.81510394,5.06676187 6.03886166,3 8.39117507,3 C10.7417858,3 12.6479854,4.8859931 12.6479854,7.21266214 C12.6460388,8.51401811 12.0286779,9.74123115 10.9759103,10.5364751 L10.9767617,10.5364751 Z M8.37925601,4.40033321 C6.81530388,4.40033321 5.54762576,5.65321908 5.54762576,7.20349875 C5.54762576,8.7512793 6.81530388,10.0066643 8.37925601,10.0066643 C9.94576221,10.0066643 11.212589,8.75377842 11.212589,7.20349875 C11.212589,5.65405212 9.94235677,4.40033321 8.37925601,4.40033321 Z" id="Shape-Copy-4" fill="#FFFFFF" fill-rule="nonzero"></path>
    </g>
</svg>